# xmcd
#
# Track frame offsets:
#	150
#	16333
#	36558
#	52673
#	69173
#	86850
#	103460
#	118887
#	137663
#	154403
#	173692
#	176842
#	196723
#
# Disc length: 2840 seconds
#
# Revision: 0
# Processed by: cddbd v1.4PL0 Copyright (c) Steve Scherf et al.
# Submitted via: dBpowerAMP V4.0
#
DISCID=b30b160d
DTITLE=Ze Ricardo - Ze Ricardo
DYEAR=1996
DGENRE=Soul
TTITLE0=Voce Chegou
TTITLE1=Me Sinto Livre
TTITLE2=Gosta de Chuva
TTITLE3=Perfume
TTITLE4=Ja
TTITLE5=Queda
TTITLE6=O Show Nao Pode Parar
TTITLE7=Nossas Tardes
TTITLE8=Loucura do Tempo
TTITLE9=Sonho Anunciado
TTITLE10=Movimento (Vinheta)
TTITLE11=Acorde Lindo
TTITLE12=Voce Me Ama e Nao Sabe
EXTD=
EXTT0=
EXTT1=
EXTT2=
EXTT3=
EXTT4=
EXTT5=
EXTT6=
EXTT7=
EXTT8=
EXTT9=
EXTT10=
EXTT11=
EXTT12=
PLAYORDER=
